<?xml version="1.0" encoding="UTF-8" standalone="no"?>
<!DOCTYPE svg PUBLIC "-//W3C//DTD SVG 1.1//EN"
 "http://www.w3.org/Graphics/SVG/1.1/DTD/svg11.dtd">
<!-- Generated by graphviz version 2.40.1 (20161225.0304)
 -->
<!-- Title: nodes Pages: 1 -->
<svg width="629pt" height="399pt"
 viewBox="0.00 0.00 629.10 399.20" xmlns="http://www.w3.org/2000/svg" xmlns:xlink="http://www.w3.org/1999/xlink">
<g id="graph0" class="graph" transform="scale(1 1) rotate(0) translate(4 395.2)">
<title>nodes</title>
<polygon fill="#ffffff" stroke="transparent" points="-4,4 -4,-395.2 625.1001,-395.2 625.1001,4 -4,4"/>
<!-- 0 -->
<g id="node1" class="node">
<title>0</title>
<polygon fill="none" stroke="#000000" points="349.835,-391.2 269.0414,-391.2 269.0414,-355.2 349.835,-355.2 349.835,-391.2"/>
<text text-anchor="middle" x="309.4382" y="-369" font-family="Times,serif" font-size="14.00" fill="#000000"> X1 &lt;= 0.1 </text>
</g>
<!-- 1 -->
<g id="node2" class="node">
<title>1</title>
<polygon fill="none" stroke="#000000" points="299.4946,-319.2 207.3818,-319.2 207.3818,-283.2 299.4946,-283.2 299.4946,-319.2"/>
<text text-anchor="middle" x="253.4382" y="-297" font-family="Times,serif" font-size="14.00" fill="#000000"> X1 &lt;= &#45;0.41 </text>
</g>
<!-- 0&#45;&gt;1 -->
<g id="edge1" class="edge">
<title>0&#45;&gt;1</title>
<path fill="none" stroke="#000000" d="M295.307,-355.0314C288.8571,-346.7386 281.0937,-336.757 274.013,-327.6533"/>
<polygon fill="#000000" stroke="#000000" points="276.6618,-325.358 267.7596,-319.6133 271.1363,-329.6556 276.6618,-325.358"/>
<text text-anchor="middle" x="264.6588" y="-340.2202" font-family="Times,serif" font-size="14.00" fill="#000000">True</text>
</g>
<!-- 2 -->
<g id="node3" class="node">
<title>2</title>
<polygon fill="none" stroke="#000000" points="409.3349,-319.2 321.5415,-319.2 321.5415,-283.2 409.3349,-283.2 409.3349,-319.2"/>
<text text-anchor="middle" x="365.4382" y="-297" font-family="Times,serif" font-size="14.00" fill="#000000"> X4 &lt;= 0.34 </text>
</g>
<!-- 0&#45;&gt;2 -->
<g id="edge2" class="edge">
<title>0&#45;&gt;2</title>
<path fill="none" stroke="#000000" d="M323.5694,-355.0314C330.0193,-346.7386 337.7827,-336.757 344.8634,-327.6533"/>
<polygon fill="#000000" stroke="#000000" points="347.7401,-329.6556 351.1168,-319.6133 342.2146,-325.358 347.7401,-329.6556"/>
<text text-anchor="middle" x="354.2176" y="-340.2202" font-family="Times,serif" font-size="14.00" fill="#000000">False</text>
</g>
<!-- 3 -->
<g id="node4" class="node">
<title>3</title>
<polygon fill="none" stroke="#000000" points="185.4946,-236 93.3818,-236 93.3818,-200 185.4946,-200 185.4946,-236"/>
<text text-anchor="middle" x="139.4382" y="-213.8" font-family="Times,serif" font-size="14.00" fill="#000000"> X1 &lt;= &#45;0.94 </text>
</g>
<!-- 1&#45;&gt;3 -->
<g id="edge3" class="edge">
<title>1&#45;&gt;3</title>
<path fill="none" stroke="#000000" d="M228.7019,-283.1468C212.2693,-271.1539 190.5023,-255.2678 172.5771,-242.1855"/>
<polygon fill="#000000" stroke="#000000" points="174.2671,-239.086 164.1262,-236.0179 170.1405,-244.7403 174.2671,-239.086"/>
</g>
<!-- 4 -->
<g id="node5" class="node">
<title>4</title>
<polygon fill="#c1b2ff" stroke="#c1b2ff" points="303.8147,-247.4014 203.0617,-247.4014 203.0617,-188.5986 303.8147,-188.5986 303.8147,-247.4014"/>
<text text-anchor="middle" x="253.4382" y="-230.6" font-family="Times,serif" font-size="14.00" fill="#000000">size = &#160;18 </text>
<text text-anchor="middle" x="253.4382" y="-213.8" font-family="Times,serif" font-size="14.00" fill="#000000"> avg_Y = &#45;0.13</text>
<text text-anchor="middle" x="253.4382" y="-197" font-family="Times,serif" font-size="14.00" fill="#000000">avg_W = 0.72 </text>
</g>
<!-- 1&#45;&gt;4 -->
<g id="edge4" class="edge">
<title>1&#45;&gt;4</title>
<path fill="none" stroke="#000000" d="M253.4382,-283.1468C253.4382,-275.5769 253.4382,-266.456 253.4382,-257.4681"/>
<polygon fill="#000000" stroke="#000000" points="256.9383,-257.4667 253.4382,-247.4668 249.9383,-257.4668 256.9383,-257.4667"/>
</g>
<!-- 5 -->
<g id="node8" class="node">
<title>5</title>
<polygon fill="none" stroke="#000000" points="409.3349,-236 321.5415,-236 321.5415,-200 409.3349,-200 409.3349,-236"/>
<text text-anchor="middle" x="365.4382" y="-213.8" font-family="Times,serif" font-size="14.00" fill="#000000"> X5 &lt;= 0.11 </text>
</g>
<!-- 2&#45;&gt;5 -->
<g id="edge7" class="edge">
<title>2&#45;&gt;5</title>
<path fill="none" stroke="#000000" d="M365.4382,-283.1468C365.4382,-272.3532 365.4382,-258.4061 365.4382,-246.1876"/>
<polygon fill="#000000" stroke="#000000" points="368.9383,-246.0179 365.4382,-236.0179 361.9383,-246.018 368.9383,-246.0179"/>
</g>
<!-- 6 -->
<g id="node9" class="node">
<title>6</title>
<polygon fill="#c1b2ff" stroke="#c1b2ff" points="526.2625,-247.4014 426.6139,-247.4014 426.6139,-188.5986 526.2625,-188.5986 526.2625,-247.4014"/>
<text text-anchor="middle" x="476.4382" y="-230.6" font-family="Times,serif" font-size="14.00" fill="#000000">size = &#160;21 </text>
<text text-anchor="middle" x="476.4382" y="-213.8" font-family="Times,serif" font-size="14.00" fill="#000000"> avg_Y = 1.51</text>
<text text-anchor="middle" x="476.4382" y="-197" font-family="Times,serif" font-size="14.00" fill="#000000">avg_W = 0.43 </text>
</g>
<!-- 2&#45;&gt;6 -->
<g id="edge8" class="edge">
<title>2&#45;&gt;6</title>
<path fill="none" stroke="#000000" d="M389.5235,-283.1468C401.0345,-274.5188 415.2338,-263.8757 428.7944,-253.7114"/>
<polygon fill="#000000" stroke="#000000" points="431.223,-256.2651 437.1256,-247.4668 427.0246,-250.6639 431.223,-256.2651"/>
</g>
<!-- 7 -->
<g id="node6" class="node">
<title>7</title>
<polygon fill="#c1b2ff" stroke="#c1b2ff" points="100.8147,-153.0014 .0617,-153.0014 .0617,-94.1986 100.8147,-94.1986 100.8147,-153.0014"/>
<text text-anchor="middle" x="50.4382" y="-136.2" font-family="Times,serif" font-size="14.00" fill="#000000">size = &#160;24 </text>
<text text-anchor="middle" x="50.4382" y="-119.4" font-family="Times,serif" font-size="14.00" fill="#000000"> avg_Y = &#45;1.03</text>
<text text-anchor="middle" x="50.4382" y="-102.6" font-family="Times,serif" font-size="14.00" fill="#000000">avg_W = 0.67 </text>
</g>
<!-- 3&#45;&gt;7 -->
<g id="edge5" class="edge">
<title>3&#45;&gt;7</title>
<path fill="none" stroke="#000000" d="M122.2781,-199.7987C111.7084,-188.5877 97.7788,-173.813 85.0012,-160.2601"/>
<polygon fill="#000000" stroke="#000000" points="87.4562,-157.7619 78.0497,-152.8868 82.3629,-162.5639 87.4562,-157.7619"/>
</g>
<!-- 8 -->
<g id="node7" class="node">
<title>8</title>
<polygon fill="#c1b2ff" stroke="#c1b2ff" points="218.2625,-153.0014 118.6139,-153.0014 118.6139,-94.1986 218.2625,-94.1986 218.2625,-153.0014"/>
<text text-anchor="middle" x="168.4382" y="-136.2" font-family="Times,serif" font-size="14.00" fill="#000000">size = &#160;23 </text>
<text text-anchor="middle" x="168.4382" y="-119.4" font-family="Times,serif" font-size="14.00" fill="#000000"> avg_Y = 0.41</text>
<text text-anchor="middle" x="168.4382" y="-102.6" font-family="Times,serif" font-size="14.00" fill="#000000">avg_W = 0.26 </text>
</g>
<!-- 3&#45;&gt;8 -->
<g id="edge6" class="edge">
<title>3&#45;&gt;8</title>
<path fill="none" stroke="#000000" d="M145.0297,-199.7987C148.2824,-189.2105 152.5117,-175.4436 156.479,-162.5294"/>
<polygon fill="#000000" stroke="#000000" points="159.8502,-163.4737 159.4412,-152.8868 153.1589,-161.418 159.8502,-163.4737"/>
</g>
<!-- 9 -->
<g id="node10" class="node">
<title>9</title>
<polygon fill="none" stroke="#000000" points="380.3349,-141.6 292.5415,-141.6 292.5415,-105.6 380.3349,-105.6 380.3349,-141.6"/>
<text text-anchor="middle" x="336.4382" y="-119.4" font-family="Times,serif" font-size="14.00" fill="#000000"> X3 &lt;= 0.25 </text>
</g>
<!-- 5&#45;&gt;9 -->
<g id="edge9" class="edge">
<title>5&#45;&gt;9</title>
<path fill="none" stroke="#000000" d="M359.8467,-199.7987C355.6342,-186.0863 349.7839,-167.0426 344.9858,-151.424"/>
<polygon fill="#000000" stroke="#000000" points="348.2949,-150.2767 342.0125,-141.7454 341.6035,-152.3323 348.2949,-150.2767"/>
</g>
<!-- 10 -->
<g id="node11" class="node">
<title>10</title>
<polygon fill="none" stroke="#000000" points="500.4946,-141.6 408.3818,-141.6 408.3818,-105.6 500.4946,-105.6 500.4946,-141.6"/>
<text text-anchor="middle" x="454.4382" y="-119.4" font-family="Times,serif" font-size="14.00" fill="#000000"> X3 &lt;= &#45;0.14 </text>
</g>
<!-- 5&#45;&gt;10 -->
<g id="edge10" class="edge">
<title>5&#45;&gt;10</title>
<path fill="none" stroke="#000000" d="M382.5983,-199.7987C396.1419,-185.4333 415.202,-165.2168 430.2866,-149.217"/>
<polygon fill="#000000" stroke="#000000" points="433.0175,-151.4225 437.3308,-141.7454 427.9242,-146.6206 433.0175,-151.4225"/>
</g>
<!-- 11 -->
<g id="node12" class="node">
<title>11</title>
<polygon fill="#c1b2ff" stroke="#c1b2ff" points="267.8147,-58.6014 167.0617,-58.6014 167.0617,.2014 267.8147,.2014 267.8147,-58.6014"/>
<text text-anchor="middle" x="217.4382" y="-41.8" font-family="Times,serif" font-size="14.00" fill="#000000">size = &#160;11 </text>
<text text-anchor="middle" x="217.4382" y="-25" font-family="Times,serif" font-size="14.00" fill="#000000"> avg_Y = &#45;1.23</text>
<text text-anchor="middle" x="217.4382" y="-8.2" font-family="Times,serif" font-size="14.00" fill="#000000">avg_W = 0.55 </text>
</g>
<!-- 9&#45;&gt;11 -->
<g id="edge11" class="edge">
<title>9&#45;&gt;11</title>
<path fill="none" stroke="#000000" d="M313.4938,-105.3987C298.9687,-93.8763 279.6982,-78.5894 262.2316,-64.7336"/>
<polygon fill="#000000" stroke="#000000" points="264.3664,-61.9596 254.3569,-58.4868 260.016,-67.4436 264.3664,-61.9596"/>
</g>
<!-- 12 -->
<g id="node13" class="node">
<title>12</title>
<polygon fill="#c1b2ff" stroke="#c1b2ff" points="386.8147,-58.6014 286.0617,-58.6014 286.0617,.2014 386.8147,.2014 386.8147,-58.6014"/>
<text text-anchor="middle" x="336.4382" y="-41.8" font-family="Times,serif" font-size="14.00" fill="#000000">size = &#160;9 </text>
<text text-anchor="middle" x="336.4382" y="-25" font-family="Times,serif" font-size="14.00" fill="#000000"> avg_Y = &#45;0.67</text>
<text text-anchor="middle" x="336.4382" y="-8.2" font-family="Times,serif" font-size="14.00" fill="#000000">avg_W = 0.44 </text>
</g>
<!-- 9&#45;&gt;12 -->
<g id="edge12" class="edge">
<title>9&#45;&gt;12</title>
<path fill="none" stroke="#000000" d="M336.4382,-105.3987C336.4382,-94.9143 336.4382,-81.3133 336.4382,-68.5095"/>
<polygon fill="#000000" stroke="#000000" points="339.9383,-68.4867 336.4382,-58.4868 332.9383,-68.4868 339.9383,-68.4867"/>
</g>
<!-- 13 -->
<g id="node14" class="node">
<title>13</title>
<polygon fill="#c1b2ff" stroke="#c1b2ff" points="504.2625,-58.6014 404.6139,-58.6014 404.6139,.2014 504.2625,.2014 504.2625,-58.6014"/>
<text text-anchor="middle" x="454.4382" y="-41.8" font-family="Times,serif" font-size="14.00" fill="#000000">size = &#160;15 </text>
<text text-anchor="middle" x="454.4382" y="-25" font-family="Times,serif" font-size="14.00" fill="#000000"> avg_Y = 0.21</text>
<text text-anchor="middle" x="454.4382" y="-8.2" font-family="Times,serif" font-size="14.00" fill="#000000">avg_W = 0.27 </text>
</g>
<!-- 10&#45;&gt;13 -->
<g id="edge13" class="edge">
<title>10&#45;&gt;13</title>
<path fill="none" stroke="#000000" d="M454.4382,-105.3987C454.4382,-94.9143 454.4382,-81.3133 454.4382,-68.5095"/>
<polygon fill="#000000" stroke="#000000" points="457.9383,-68.4867 454.4382,-58.4868 450.9383,-68.4868 457.9383,-68.4867"/>
</g>
<!-- 14 -->
<g id="node15" class="node">
<title>14</title>
<polygon fill="#c1b2ff" stroke="#c1b2ff" points="621.2625,-58.6014 521.6139,-58.6014 521.6139,.2014 621.2625,.2014 621.2625,-58.6014"/>
<text text-anchor="middle" x="571.4382" y="-41.8" font-family="Times,serif" font-size="14.00" fill="#000000">size = &#160;4 </text>
<text text-anchor="middle" x="571.4382" y="-25" font-family="Times,serif" font-size="14.00" fill="#000000"> avg_Y = 2.06</text>
<text text-anchor="middle" x="571.4382" y="-8.2" font-family="Times,serif" font-size="14.00" fill="#000000">avg_W = 0.75 </text>
</g>
<!-- 10&#45;&gt;14 -->
<g id="edge14" class="edge">
<title>10&#45;&gt;14</title>
<path fill="none" stroke="#000000" d="M476.997,-105.3987C491.1493,-93.9801 509.8836,-78.8646 526.9331,-65.1084"/>
<polygon fill="#000000" stroke="#000000" points="529.5551,-67.4901 535.14,-58.4868 525.1595,-62.0422 529.5551,-67.4901"/>
</g>
</g>
</svg>
